<svg width="32" height="32" viewBox="0 0 32 32" fill="none" xmlns="http://www.w3.org/2000/svg">
<g id="akar-icons:discord-fill" clip-path="url(#clip0_3_59)">
<g id="Vector">
<mask id="path-1-inside-1_3_59" fill="white">
<path d="M26.3735 6.68333C24.4167 5.80086 22.3192 5.14859 20.1258 4.7777C20.1063 4.77395 20.0861 4.77637 20.068 4.78461C20.0499 4.79286 20.0348 4.80654 20.0248 4.82374C19.7562 5.29567 19.4569 5.91085 19.2472 6.39685C16.9209 6.04928 14.5559 6.04928 12.2296 6.39685C11.996 5.85823 11.7325 5.33305 11.4405 4.82374C11.4306 4.80633 11.4156 4.79234 11.3976 4.78366C11.3795 4.77498 11.3592 4.772 11.3395 4.77514C9.14734 5.14604 7.04986 5.7983 5.09179 6.68205C5.07495 6.68912 5.06067 6.70117 5.05087 6.71658C1.07078 12.5678 -0.0201597 18.2744 0.515719 23.9095C0.51721 23.9233 0.521494 23.9366 0.52831 23.9487C0.535126 23.9608 0.544332 23.9714 0.555367 23.9798C2.87844 25.6711 5.46951 26.9595 8.2201 27.7911C8.23927 27.797 8.25978 27.797 8.27895 27.791C8.29811 27.7851 8.31504 27.7735 8.32753 27.7578C8.91942 26.9662 9.44392 26.1264 9.89552 25.2473C9.90179 25.2352 9.9054 25.222 9.90611 25.2085C9.90682 25.1949 9.90462 25.1814 9.89965 25.1688C9.89468 25.1562 9.88705 25.1448 9.87729 25.1354C9.86753 25.126 9.85587 25.1187 9.84308 25.1142C9.01689 24.8031 8.21637 24.4277 7.44889 23.9913C7.4351 23.9835 7.42348 23.9723 7.41507 23.9588C7.40667 23.9453 7.40173 23.93 7.40072 23.9141C7.3997 23.8983 7.40264 23.8825 7.40926 23.868C7.41589 23.8536 7.42599 23.841 7.43866 23.8315C7.59981 23.7125 7.76096 23.5885 7.91443 23.4644C7.92824 23.4532 7.94488 23.4461 7.9625 23.4439C7.98011 23.4416 7.998 23.4443 8.01419 23.4516C13.0366 25.7077 18.476 25.7077 23.4396 23.4516C23.4558 23.4439 23.4739 23.4408 23.4917 23.4429C23.5096 23.4449 23.5265 23.4519 23.5406 23.4631C23.6941 23.5885 23.854 23.7125 24.0164 23.8315C24.0292 23.8408 24.0394 23.8532 24.0463 23.8675C24.0531 23.8818 24.0563 23.8976 24.0555 23.9135C24.0548 23.9293 24.0501 23.9447 24.0419 23.9583C24.0337 23.9719 24.0223 23.9832 24.0087 23.9913C23.2439 24.4313 22.4484 24.8035 21.6132 25.113C21.6004 25.1176 21.5887 25.125 21.579 25.1345C21.5692 25.144 21.5616 25.1555 21.5566 25.1682C21.5517 25.1809 21.5495 25.1946 21.5502 25.2082C21.5509 25.2218 21.5545 25.2351 21.5608 25.2473C22.0212 26.1259 22.5481 26.9623 23.1275 27.7565C23.1396 27.7728 23.1563 27.785 23.1756 27.7914C23.1948 27.7978 23.2155 27.7982 23.2349 27.7924C25.9902 26.9631 28.5855 25.6741 30.9112 23.9798C30.9225 23.9719 30.9321 23.9616 30.9391 23.9497C30.9462 23.9378 30.9506 23.9245 30.9521 23.9108C31.5916 17.3958 29.8804 11.7352 26.4131 6.71914C26.4046 6.70284 26.3906 6.69013 26.3735 6.68333ZM10.6463 20.4781C9.13455 20.4781 7.88757 19.1109 7.88757 17.4342C7.88757 15.7562 9.11025 14.3903 10.6463 14.3903C12.1938 14.3903 13.4293 15.7677 13.405 17.4342C13.405 19.1121 12.1823 20.4781 10.6463 20.4781ZM20.8459 20.4781C19.3329 20.4781 18.0872 19.1109 18.0872 17.4342C18.0872 15.7562 19.3086 14.3903 20.8459 14.3903C22.3934 14.3903 23.6289 15.7677 23.6046 17.4342C23.6046 19.1121 22.3947 20.4781 20.8459 20.4781Z"/>
</mask>
<path d="M26.3735 6.68333L25.8827 7.77148L25.907 7.78243L25.9318 7.79229L26.3735 6.68333ZM20.1258 4.7777L19.9008 5.94998L19.9138 5.95247L19.9268 5.95467L20.1258 4.7777ZM20.0248 4.82374L18.9924 4.2244L18.9873 4.23333L20.0248 4.82374ZM19.2472 6.39685L19.0708 7.57743L19.9792 7.71315L20.3432 6.86984L19.2472 6.39685ZM12.2296 6.39685L11.1345 6.87184L11.4993 7.7129L12.406 7.57743L12.2296 6.39685ZM11.4405 4.82374L10.4027 5.41361L10.405 5.41752L11.4405 4.82374ZM11.3395 4.77514L11.1525 3.59612L11.1403 3.59818L11.3395 4.77514ZM5.09179 6.68205L5.55349 7.78283L5.56826 7.77664L5.58285 7.77005L5.09179 6.68205ZM5.05087 6.71658L6.03786 7.38795L6.04829 7.3726L6.05825 7.35694L5.05087 6.71658ZM0.515719 23.9095L-0.672604 24.0225L-0.67188 24.0301L-0.671058 24.0377L0.515719 23.9095ZM0.555367 23.9798L-0.168858 24.9287L-0.158128 24.9369L-0.147215 24.9448L0.555367 23.9798ZM8.2201 27.7911L8.57132 26.6502L8.56553 26.6485L8.2201 27.7911ZM8.32753 27.7578L9.26182 28.5008L9.27288 28.4869L9.28351 28.4726L8.32753 27.7578ZM9.89552 25.2473L8.83706 24.6953L8.83372 24.7019L9.89552 25.2473ZM9.84308 25.1142L9.4224 26.2313L9.43416 26.2358L9.44601 26.2399L9.84308 25.1142ZM7.44889 23.9913L6.85714 25.028L6.85894 25.029L7.44889 23.9913ZM7.43866 23.8315L6.72975 22.871L6.71958 22.8787L7.43866 23.8315ZM7.91443 23.4644L7.16445 22.5357L7.16403 22.5361L7.91443 23.4644ZM8.01419 23.4516L7.52273 24.5394L7.52507 24.5405L8.01419 23.4516ZM23.4396 23.4516L23.9335 24.5383L23.9436 24.5337L23.9537 24.5289L23.4396 23.4516ZM23.5406 23.4631L24.2957 22.5386L24.2898 22.5338L24.2839 22.5291L23.5406 23.4631ZM24.0164 23.8315L23.3111 24.7945L23.3113 24.7946L24.0164 23.8315ZM24.0087 23.9913L24.6039 25.026L24.6111 25.0219L24.6183 25.0176L24.0087 23.9913ZM21.6132 25.113L22.0206 26.235L22.028 26.2323L21.6132 25.113ZM21.5608 25.2473L20.5009 25.7964L20.5035 25.8013L21.5608 25.2473ZM23.1275 27.7565L22.1631 28.46L22.1676 28.466L23.1275 27.7565ZM23.2349 27.7924L23.5772 28.9359L23.5789 28.9354L23.2349 27.7924ZM30.9112 23.9798L30.2272 23.0015L30.2177 23.0082L30.2083 23.015L30.9112 23.9798ZM30.9521 23.9108L32.1388 24.0409L32.1401 24.0274L30.9521 23.9108ZM26.4131 6.71914L25.3547 7.27104L25.389 7.33684L25.4312 7.39788L26.4131 6.71914ZM13.405 17.4342L12.2114 17.4168L12.2113 17.4255V17.4342H13.405ZM23.6046 17.4342L22.411 17.4168L22.4109 17.4255V17.4342H23.6046ZM26.8642 5.59518C24.8171 4.67197 22.6217 3.98912 20.3248 3.60072L19.9268 5.95467C22.0167 6.30807 24.0163 6.92975 25.8827 7.77148L26.8642 5.59518ZM20.3508 3.60542C20.0882 3.555 19.8164 3.58749 19.573 3.6984L20.5629 5.87083C20.3558 5.96524 20.1244 5.9929 19.9008 5.94998L20.3508 3.60542ZM19.573 3.6984C19.3296 3.8093 19.1267 3.99312 18.9925 4.22443L21.0571 5.42306C20.9428 5.61995 20.7701 5.77643 20.5629 5.87083L19.573 3.6984ZM18.9873 4.23333C18.6933 4.75003 18.3749 5.40547 18.1512 5.92385L20.3432 6.86984C20.5389 6.41622 20.8191 5.84132 21.0622 5.41416L18.9873 4.23333ZM19.4236 5.21627C16.9803 4.85122 14.4964 4.85122 12.0532 5.21627L12.406 7.57743C14.6153 7.24733 16.8615 7.24733 19.0708 7.57743L19.4236 5.21627ZM13.3247 5.92185C13.0734 5.34256 12.7901 4.77772 12.476 4.22996L10.405 5.41752C10.675 5.88837 10.9185 6.3739 11.1345 6.87184L13.3247 5.92185ZM12.4782 4.23388C12.3484 4.00535 12.1519 3.82189 11.915 3.70795L10.8801 5.85937C10.6794 5.7628 10.5128 5.6073 10.4027 5.41361L12.4782 4.23388ZM11.915 3.70795C11.6781 3.59402 11.4121 3.55502 11.1525 3.59618L11.5264 5.9541C11.3063 5.98899 11.0809 5.95594 10.8801 5.85937L11.915 3.70795ZM11.1403 3.59818C8.8447 3.98659 6.64929 4.66946 4.60074 5.59405L5.58285 7.77005C7.45043 6.92714 9.44997 6.30548 11.5386 5.9521L11.1403 3.59818ZM4.63009 5.58127C4.38864 5.68254 4.18395 5.85525 4.04348 6.07623L6.05825 7.35694C5.93739 7.54708 5.76125 7.69569 5.55349 7.78283L4.63009 5.58127ZM4.06388 6.04522C-0.0823649 12.1407 -1.23314 18.1282 -0.672604 24.0225L1.70404 23.7965C1.19282 18.4207 2.22393 12.9949 6.03786 7.38795L4.06388 6.04522ZM-0.671058 24.0377C-0.65217 24.2125 -0.597905 24.3817 -0.51157 24.5348L1.56819 23.3626C1.64089 23.4916 1.68659 23.634 1.7025 23.7812L-0.671058 24.0377ZM-0.51157 24.5348C-0.425244 24.688 -0.308647 24.822 -0.168858 24.9287L1.27959 23.0309C1.39731 23.1208 1.4955 23.2336 1.56819 23.3626L-0.51157 24.5348ZM-0.147215 24.9448C2.2841 26.715 4.99591 28.0634 7.87467 28.9337L8.56553 26.6485C5.94311 25.8557 3.47277 24.6273 1.25795 23.0148L-0.147215 24.9448ZM7.86889 28.9319C8.11755 29.0085 8.38346 29.0082 8.6319 28.9313L7.92599 26.6507C8.1361 26.5857 8.36099 26.5855 8.57131 26.6502L7.86889 28.9319ZM8.6319 28.9313C8.88039 28.8544 9.09992 28.7044 9.26182 28.5008L7.39324 27.0149C7.53016 26.8427 7.71583 26.7158 7.92599 26.6507L8.6319 28.9313ZM9.28351 28.4726C9.91535 27.6276 10.4752 26.7312 10.9573 25.7926L8.83372 24.7019C8.41259 25.5217 7.92349 26.3048 7.37154 27.043L9.28351 28.4726ZM10.954 25.7992C11.0393 25.6355 11.0885 25.4554 11.0981 25.2712L8.71408 25.1458C8.72235 24.9886 8.76429 24.835 8.83708 24.6953L10.954 25.7992ZM11.0981 25.2712C11.1078 25.0869 11.0778 24.9027 11.0102 24.731L8.78914 25.6066C8.73141 25.4601 8.7058 25.303 8.71408 25.1458L11.0981 25.2712ZM11.0102 24.731C10.9425 24.5593 10.8387 24.4042 10.7058 24.2761L9.04874 25.9947C8.93539 25.8854 8.84687 25.753 8.78914 25.6066L11.0102 24.731ZM10.7058 24.2761C10.573 24.148 10.4142 24.0499 10.2402 23.9885L9.44601 26.2399C9.29755 26.1876 9.16207 26.1039 9.04874 25.9947L10.7058 24.2761ZM10.2638 23.9971C9.49599 23.708 8.75206 23.3591 8.03885 22.9536L6.85894 25.029C7.68068 25.4962 8.53779 25.8982 9.4224 26.2313L10.2638 23.9971ZM8.04064 22.9546C8.19848 23.0447 8.33147 23.1726 8.42769 23.3267L6.40246 24.5909C6.5155 24.772 6.67173 24.9222 6.85714 25.028L8.04064 22.9546ZM8.42769 23.3267C8.5239 23.4809 8.58036 23.6565 8.59197 23.8379L6.20947 23.9904C6.22311 24.2035 6.28943 24.4098 6.40246 24.5909L8.42769 23.3267ZM8.59197 23.8379C8.60357 24.0193 8.56997 24.2007 8.49419 24.3658L6.32434 23.3702C6.23531 23.5642 6.19584 23.7773 6.20947 23.9904L8.59197 23.8379ZM8.49419 24.3658C8.41842 24.531 8.30283 24.6747 8.15774 24.7842L6.71958 22.8787C6.54915 23.0073 6.41335 23.1762 6.32434 23.3702L8.49419 24.3658ZM8.14753 24.7919C8.32149 24.6635 8.49658 24.5287 8.66483 24.3927L7.16403 22.5361C7.02533 22.6482 6.87812 22.7616 6.72979 22.871L8.14753 24.7919ZM8.66441 24.3931C8.50631 24.5207 8.31587 24.602 8.11429 24.6279L7.8107 22.2599C7.5739 22.2902 7.35018 22.3857 7.16445 22.5357L8.66441 24.3931ZM8.11429 24.6279C7.91273 24.6537 7.70794 24.6231 7.52273 24.5394L8.50564 22.3638C8.28807 22.2655 8.0475 22.2295 7.8107 22.2599L8.11429 24.6279ZM7.52507 24.5405C12.8567 26.9355 18.6542 26.9379 23.9335 24.5383L22.9456 22.3649C18.2977 24.4775 13.2165 24.4799 8.50331 22.3627L7.52507 24.5405ZM23.9537 24.5289C23.768 24.6175 23.5611 24.6522 23.3566 24.6289L23.6269 22.2569C23.3867 22.2295 23.1436 22.2702 22.9255 22.3743L23.9537 24.5289ZM23.3566 24.6289C23.1522 24.6056 22.9584 24.5253 22.7974 24.3972L24.2839 22.5291C24.0947 22.3785 23.867 22.2842 23.6269 22.2569L23.3566 24.6289ZM22.7856 24.3877C22.9545 24.5256 23.131 24.6626 23.3111 24.7945L24.7216 22.8684C24.5769 22.7624 24.4337 22.6513 24.2957 22.5386L22.7856 24.3877ZM23.3113 24.7946C23.1648 24.6874 23.0473 24.5456 22.9691 24.3819L25.1235 23.3532C25.0316 23.1609 24.8935 22.9942 24.7215 22.8683L23.3113 24.7946ZM22.9691 24.3819C22.8909 24.2181 22.8545 24.0375 22.8632 23.8562L25.2478 23.9707C25.2581 23.7578 25.2153 23.5456 25.1235 23.3532L22.9691 24.3819ZM22.8632 23.8562C22.8719 23.6749 22.9254 23.4987 23.0189 23.3431L25.0649 24.5734C25.1748 24.3907 25.2376 24.1836 25.2478 23.9707L22.8632 23.8562ZM23.0189 23.3431C23.1124 23.1877 23.243 23.0577 23.3991 22.965L24.6183 25.0176C24.8016 24.9087 24.9551 24.7561 25.0649 24.5734L23.0189 23.3431ZM23.4135 22.9566C22.7072 23.3629 21.9721 23.7069 21.1984 23.9937L22.028 26.2323C22.9246 25.9 23.7806 25.4997 24.6039 25.026L23.4135 22.9566ZM21.2059 23.9909C21.0335 24.0535 20.8764 24.1522 20.7451 24.2803L22.4128 25.9886C22.301 26.0978 22.1673 26.1817 22.0206 26.235L21.2059 23.9909ZM20.7451 24.2803C20.6138 24.4085 20.5114 24.5632 20.4447 24.7341L22.6685 25.6024C22.6118 25.7478 22.5246 25.8795 22.4128 25.9886L20.7451 24.2803ZM20.4447 24.7341C20.378 24.905 20.3485 25.0881 20.3582 25.2713L22.7422 25.1451C22.7504 25.301 22.7254 25.4569 22.6685 25.6024L20.4447 24.7341ZM20.3582 25.2713C20.3679 25.4545 20.4165 25.6335 20.5009 25.7964L22.6207 24.6981C22.6925 24.8368 22.7339 24.9891 22.7422 25.1451L20.3582 25.2713ZM20.5035 25.8013C20.9931 26.7357 21.5517 27.6219 22.1631 28.46L24.0919 27.0531C23.5445 26.3028 23.0493 25.5161 22.6181 24.6932L20.5035 25.8013ZM22.1676 28.466C22.3256 28.6799 22.5458 28.8398 22.7981 28.9239L23.553 26.659C23.7668 26.7303 23.9535 26.8658 24.0875 27.047L22.1676 28.466ZM22.7981 28.9239C23.0503 29.0079 23.3224 29.0122 23.5772 28.9359L22.8927 26.6488C23.1086 26.5842 23.3392 26.5877 23.553 26.659L22.7981 28.9239ZM23.5789 28.9354C26.4631 28.0674 29.1797 26.7181 31.6141 24.9446L30.2083 23.015C27.9914 24.6301 25.5174 25.8589 22.8909 26.6493L23.5789 28.9354ZM31.5951 24.9581C31.7459 24.8528 31.8723 24.7164 31.966 24.5582L29.9122 23.3412C29.9918 23.2068 30.0992 23.091 30.2272 23.0015L31.5951 24.9581ZM31.966 24.5582C32.0598 24.4 32.1186 24.2236 32.1387 24.0409L29.7655 23.7806C29.7826 23.6254 29.8325 23.4756 29.9122 23.3412L31.966 24.5582ZM32.1401 24.0274C32.8093 17.2089 31.0097 11.2697 27.3951 6.0404L25.4312 7.39788C28.751 12.2007 30.3738 17.5827 29.7641 23.7941L32.1401 24.0274ZM27.4716 6.16724C27.3308 5.89736 27.0979 5.68699 26.8152 5.57437L25.9318 7.79229C25.6832 7.69328 25.4784 7.50832 25.3547 7.27104L27.4716 6.16724ZM10.6463 19.2844C9.89949 19.2844 9.08126 18.5625 9.08126 17.4342H6.69389C6.69389 19.6592 8.3696 21.6717 10.6463 21.6717V19.2844ZM9.08126 17.4342C9.08126 16.2977 9.88135 15.584 10.6463 15.584V13.1966C8.33914 13.1966 6.69389 15.2146 6.69389 17.4342H9.08126ZM10.6463 15.584C11.4314 15.584 12.2274 16.3157 12.2114 17.4168L14.5985 17.4516C14.6311 15.2196 12.9562 13.1966 10.6463 13.1966V15.584ZM12.2113 17.4342C12.2113 18.5706 11.4112 19.2844 10.6463 19.2844V21.6717C12.9534 21.6717 14.5986 19.6537 14.5986 17.4342H12.2113ZM20.8459 19.2844C20.0982 19.2844 19.2809 18.5629 19.2809 17.4342H16.8935C16.8935 19.6588 18.5676 21.6717 20.8459 21.6717V19.2844ZM19.2809 17.4342C19.2809 16.2974 20.08 15.584 20.8459 15.584V13.1966C18.5371 13.1966 16.8935 15.215 16.8935 17.4342H19.2809ZM20.8459 15.584C21.631 15.584 22.4271 16.3157 22.411 17.4168L24.7981 17.4516C24.8307 15.2196 23.1558 13.1966 20.8459 13.1966V15.584ZM22.4109 17.4342C22.4109 18.5744 21.6202 19.2844 20.8459 19.2844V21.6717C23.1692 21.6717 24.7982 19.6499 24.7982 17.4342H22.4109Z" fill="white" mask="url(#path-1-inside-1_3_59)"/>
</g>
</g>
<defs>
<clipPath id="clip0_3_59">
<rect width="30.6947" height="30.6947" fill="white" transform="translate(0.389465 0.938477)"/>
</clipPath>
</defs>
</svg>
