<svg width="32" height="32" viewBox="0 0 32 32" fill="none" xmlns="http://www.w3.org/2000/svg">
<g id="ci:instagram">
<path id="Vector" d="M16.0451 27.8486C12.8989 27.8486 12.528 27.832 11.3002 27.7782C10.3427 27.7468 9.39768 27.5521 8.50571 27.2027C7.74241 26.9057 7.04922 26.4531 6.47016 25.8739C5.8911 25.2946 5.43884 24.6012 5.14208 23.8378C4.8061 22.9426 4.62489 21.9967 4.6062 21.0408C4.53458 19.8155 4.53458 19.4139 4.53458 16.292C4.53458 13.1369 4.5512 12.7685 4.6062 11.5471C4.6253 10.5924 4.80651 9.6479 5.14208 8.7539C5.43849 7.98952 5.89107 7.29536 6.47089 6.71576C7.05072 6.13615 7.74505 5.68384 8.50954 5.38772C9.40307 5.05033 10.3478 4.86865 11.3028 4.85056C12.5242 4.78149 12.9257 4.78149 16.0451 4.78149C19.2169 4.78149 19.5814 4.79812 20.79 4.85056C21.7466 4.86846 22.6956 5.05007 23.5909 5.38772C24.3552 5.68419 25.0493 6.13662 25.6291 6.71618C26.2089 7.29574 26.6616 7.98972 26.9584 8.7539C27.2998 9.66196 27.4827 10.6212 27.4968 11.5893C27.5684 12.8146 27.5684 13.2149 27.5684 16.3355C27.5684 19.4561 27.5505 19.8654 27.4968 21.0766C27.4777 22.0335 27.296 22.9802 26.9596 23.8762C26.6621 24.6401 26.209 25.3339 25.6291 25.9134C25.0491 26.4929 24.3551 26.9454 23.5909 27.2424C22.6956 27.5775 21.7505 27.7591 20.7951 27.7782C19.5737 27.8486 19.1734 27.8486 16.0451 27.8486ZM16.0016 6.80607C12.8733 6.80607 12.5485 6.82142 11.3271 6.87641C10.5976 6.88595 9.8752 7.02048 9.19122 7.27416C8.69235 7.46539 8.23907 7.75902 7.86063 8.13615C7.48218 8.51327 7.18696 8.96552 6.99399 9.46372C6.7382 10.1544 6.60391 10.8846 6.59624 11.6213C6.52845 12.8606 6.52845 13.1855 6.52845 16.292C6.52845 19.3615 6.53997 19.7337 6.59624 20.9653C6.60775 21.6943 6.74204 22.4169 6.99399 23.1011C7.38535 24.1077 8.18341 24.9032 9.1925 25.2894C9.8756 25.5447 10.5979 25.6793 11.3271 25.6872C12.5651 25.7588 12.8912 25.7588 16.0016 25.7588C19.1389 25.7588 19.4637 25.7434 20.6749 25.6872C21.4044 25.6783 22.1269 25.5438 22.8107 25.2894C23.3069 25.0967 23.7576 24.8029 24.1342 24.4266C24.5107 24.0503 24.8048 23.5998 24.9977 23.1037C25.2535 22.4131 25.3878 21.6815 25.3955 20.9448H25.4096C25.4645 19.7222 25.4645 19.396 25.4645 16.2716C25.4645 13.1471 25.4505 12.8184 25.3955 11.597C25.3839 10.8686 25.2494 10.1474 24.9977 9.46372C24.8052 8.96691 24.5113 8.51564 24.1348 8.13867C23.7582 7.76169 23.3073 7.46727 22.8107 7.27416C22.1271 7.01925 21.4045 6.88467 20.6749 6.87641C19.4381 6.80607 19.1146 6.80607 16.0016 6.80607ZM16.0451 22.1995C14.8756 22.2002 13.7321 21.8541 12.7593 21.205C11.7865 20.5558 11.0281 19.6327 10.58 18.5525C10.1318 17.4723 10.0141 16.2834 10.2417 15.1362C10.4693 13.9891 11.032 12.9352 11.8586 12.1079C12.6852 11.2806 13.7386 10.717 14.8856 10.4884C16.0325 10.2598 17.2215 10.3765 18.3021 10.8237C19.3828 11.2709 20.3065 12.0285 20.9565 13.0007C21.6065 13.973 21.9536 15.1161 21.9538 16.2856C21.9518 17.8526 21.3288 19.3548 20.2213 20.4633C19.1138 21.5718 17.612 22.1961 16.0451 22.1995ZM16.0451 12.4462C15.2862 12.4462 14.5444 12.6713 13.9135 13.0929C13.2825 13.5144 12.7907 14.1137 12.5003 14.8148C12.2099 15.5159 12.1339 16.2873 12.282 17.0316C12.43 17.7759 12.7955 18.4595 13.332 18.9961C13.8686 19.5327 14.5523 19.8981 15.2966 20.0462C16.0408 20.1942 16.8123 20.1182 17.5134 19.8278C18.2145 19.5374 18.8137 19.0457 19.2353 18.4147C19.6569 17.7837 19.8819 17.0419 19.8819 16.2831C19.8796 15.2662 19.4746 14.2917 18.7555 13.5726C18.0365 12.8536 17.062 12.4486 16.0451 12.4462ZM22.184 11.5343C22.003 11.5337 21.8238 11.4973 21.6568 11.4274C21.4898 11.3575 21.3382 11.2554 21.2107 11.1269C20.9531 10.8674 20.8091 10.5162 20.8105 10.1505C20.8118 9.78486 20.9584 9.43472 21.2179 9.17712C21.4774 8.91952 21.8286 8.77557 22.1943 8.77693C22.5599 8.77828 22.9101 8.92484 23.1677 9.18436C23.4253 9.44387 23.5692 9.79509 23.5679 10.1607C23.5665 10.5264 23.42 10.8765 23.1604 11.1341C22.9009 11.3917 22.5497 11.5357 22.184 11.5343Z" fill="white"/>
</g>
</svg>
