<svg width="31" height="32" viewBox="0 0 31 32" fill="none" xmlns="http://www.w3.org/2000/svg">
<g id="Frame 2">
<path id="Vector" d="M28.1366 6.06591C27.0232 6.83623 25.7904 7.4254 24.4857 7.81074C23.7855 7.02102 22.8549 6.46128 21.8198 6.20724C20.7846 5.95319 19.6949 6.0171 18.698 6.3903C17.7011 6.76351 16.8451 7.42802 16.2458 8.29395C15.6465 9.15988 15.3328 10.1855 15.3471 11.232V12.3724C13.3038 12.4243 11.2792 11.9799 9.45348 11.0785C7.62776 10.1772 6.05765 8.84696 4.88298 7.20632C4.88298 7.20632 0.232259 17.47 10.6964 22.0317C8.30187 23.6259 5.44938 24.4253 2.55762 24.3125C13.0217 30.0145 25.8112 24.3125 25.8112 11.1978C25.8101 10.8801 25.779 10.5632 25.7182 10.2512C26.9048 9.10339 27.7422 7.65417 28.1366 6.06591V6.06591Z" stroke="white" stroke-width="1.27895" stroke-linecap="round" stroke-linejoin="round"/>
</g>
</svg>
